<?xml version="1.0" encoding="UTF-8"?>
<svg xmlns="http://www.w3.org/2000/svg" xmlns:xlink="http://www.w3.org/1999/xlink" width="512" height="512" viewBox="0 0 512 512">
<path fill-rule="nonzero" fill="rgb(23.137255%, 16.862745%, 9.411765%)" fill-opacity="1" d="M 110 0 L 402 0 C 462.75 0 512 49.25 512 110 L 512 402 C 512 462.75 462.75 512 402 512 L 110 512 C 49.25 512 0 462.75 0 402 L 0 110 C 0 49.25 49.25 0 110 0 Z M 110 0 "/>
<path fill-rule="nonzero" fill="rgb(34.117647%, 26.666667%, 12.156863%)" fill-opacity="1" d="M 116 20 L 396 20 C 449.019531 20 492 62.980469 492 116 L 492 396 C 492 449.019531 449.019531 492 396 492 L 116 492 C 62.980469 492 20 449.019531 20 396 L 20 116 C 20 62.980469 62.980469 20 116 20 Z M 116 20 "/>
<path fill="none" stroke-width="5" stroke-linecap="butt" stroke-linejoin="miter" stroke="rgb(78.823529%, 63.529412%, 15.294118%)" stroke-opacity="1" stroke-miterlimit="4" d="M 122 38 L 390 38 C 436.390625 38 474 75.609375 474 122 L 474 390 C 474 436.390625 436.390625 474 390 474 L 122 474 C 75.609375 474 38 436.390625 38 390 L 38 122 C 38 75.609375 75.609375 38 122 38 Z M 122 38 "/>
<path fill="none" stroke-width="1.5" stroke-linecap="butt" stroke-linejoin="miter" stroke="rgb(54.509804%, 43.529412%, 24.313725%)" stroke-opacity="1" stroke-miterlimit="4" d="M 128 56 L 384 56 C 423.765625 56 456 88.234375 456 128 L 456 384 C 456 423.765625 423.765625 456 384 456 L 128 456 C 88.234375 456 56 423.765625 56 384 L 56 128 C 56 88.234375 88.234375 56 128 56 Z M 128 56 "/>
<path fill="none" stroke-width="2" stroke-linecap="butt" stroke-linejoin="miter" stroke="rgb(78.823529%, 63.529412%, 15.294118%)" stroke-opacity="1" stroke-miterlimit="4" d="M 80.000855 80.000855 L 95.999145 80.000855 L 95.999145 95.999145 L 80.000855 95.999145 Z M 80.000855 80.000855 " transform="matrix(0.707107, 0.707107, -0.707107, 0.707107, 88, -36.450793)"/>
<path fill="none" stroke-width="2" stroke-linecap="butt" stroke-linejoin="miter" stroke="rgb(78.823529%, 63.529412%, 15.294118%)" stroke-opacity="1" stroke-miterlimit="4" d="M 416.000855 80.000855 L 431.999145 80.000855 L 431.999145 95.999145 L 416.000855 95.999145 Z M 416.000855 80.000855 " transform="matrix(0.707107, 0.707107, -0.707107, 0.707107, 186.412122, -274.038672)"/>
<path fill-rule="nonzero" fill="rgb(90.980392%, 83.137255%, 60.392157%)" fill-opacity="1" stroke-width="2" stroke-linecap="butt" stroke-linejoin="miter" stroke="rgb(54.509804%, 43.529412%, 24.313725%)" stroke-opacity="1" stroke-miterlimit="4" d="M 260 176 C 232 150 204 116 188 82 C 180 66 168 56 154 50 C 152 66 154 86 160 104 C 170 136 206 164 246 190 Z M 260 176 "/>
<path fill-rule="nonzero" fill="rgb(78.823529%, 63.529412%, 15.294118%)" fill-opacity="1" d="M 260 176 C 232 150 206 118 190 86 C 186 76 178 64 166 56 C 170 74 178 98 190 122 C 204 150 228 168 250 184 Z M 260 176 "/>
<path fill-rule="nonzero" fill="rgb(34.117647%, 26.666667%, 12.156863%)" fill-opacity="1" d="M 160 76 L 149 68 L 152 88 Z M 160 76 "/>
<path fill-rule="nonzero" fill="rgb(34.117647%, 26.666667%, 12.156863%)" fill-opacity="1" d="M 168 108 L 156 102 L 161 122 Z M 168 108 "/>
<path fill-rule="nonzero" fill="rgb(34.117647%, 26.666667%, 12.156863%)" fill-opacity="1" d="M 182 140 L 170 136 L 177 154 Z M 182 140 "/>
<path fill="none" stroke-width="2.5" stroke-linecap="butt" stroke-linejoin="miter" stroke="rgb(41.960784%, 32.941176%, 14.901961%)" stroke-opacity="1" stroke-miterlimit="4" d="M 254 180 C 224 152 198 120 182 88 C 176 74 166 60 157 53 "/>
<path fill-rule="nonzero" fill="rgb(0%, 0%, 0%)" fill-opacity="1" stroke-width="1.8" stroke-linecap="butt" stroke-linejoin="miter" stroke="rgb(54.509804%, 43.529412%, 24.313725%)" stroke-opacity="1" stroke-miterlimit="4" d="M 196 106 L 184 98 "/>
<path fill-rule="nonzero" fill="rgb(0%, 0%, 0%)" fill-opacity="1" stroke-width="1.8" stroke-linecap="butt" stroke-linejoin="miter" stroke="rgb(54.509804%, 43.529412%, 24.313725%)" stroke-opacity="1" stroke-miterlimit="4" d="M 210 128 L 196 120 "/>
<path fill-rule="nonzero" fill="rgb(0%, 0%, 0%)" fill-opacity="1" stroke-width="1.8" stroke-linecap="butt" stroke-linejoin="miter" stroke="rgb(54.509804%, 43.529412%, 24.313725%)" stroke-opacity="1" stroke-miterlimit="4" d="M 226 146 L 212 140 "/>
<path fill-rule="nonzero" fill="rgb(0%, 0%, 0%)" fill-opacity="1" stroke-width="1.8" stroke-linecap="butt" stroke-linejoin="miter" stroke="rgb(54.509804%, 43.529412%, 24.313725%)" stroke-opacity="1" stroke-miterlimit="4" d="M 240 160 L 228 156 "/>
<path fill-rule="nonzero" fill="rgb(90.980392%, 83.137255%, 60.392157%)" fill-opacity="1" stroke-width="2" stroke-linecap="butt" stroke-linejoin="miter" stroke="rgb(54.509804%, 43.529412%, 24.313725%)" stroke-opacity="1" stroke-miterlimit="4" d="M 252 176 C 280 150 308 116 324 82 C 332 66 344 56 358 50 C 360 66 358 86 352 104 C 342 136 306 164 266 190 Z M 252 176 "/>
<path fill-rule="nonzero" fill="rgb(78.823529%, 63.529412%, 15.294118%)" fill-opacity="1" d="M 252 176 C 280 150 306 118 322 86 C 326 76 334 64 346 56 C 342 74 334 98 322 122 C 308 150 284 168 262 184 Z M 252 176 "/>
<path fill-rule="nonzero" fill="rgb(34.117647%, 26.666667%, 12.156863%)" fill-opacity="1" d="M 352 76 L 363 68 L 360 88 Z M 352 76 "/>
<path fill-rule="nonzero" fill="rgb(34.117647%, 26.666667%, 12.156863%)" fill-opacity="1" d="M 344 108 L 356 102 L 351 122 Z M 344 108 "/>
<path fill-rule="nonzero" fill="rgb(34.117647%, 26.666667%, 12.156863%)" fill-opacity="1" d="M 330 140 L 342 136 L 335 154 Z M 330 140 "/>
<path fill="none" stroke-width="2.5" stroke-linecap="butt" stroke-linejoin="miter" stroke="rgb(41.960784%, 32.941176%, 14.901961%)" stroke-opacity="1" stroke-miterlimit="4" d="M 258 180 C 288 152 314 120 330 88 C 336 74 346 60 355 53 "/>
<path fill-rule="nonzero" fill="rgb(0%, 0%, 0%)" fill-opacity="1" stroke-width="1.8" stroke-linecap="butt" stroke-linejoin="miter" stroke="rgb(54.509804%, 43.529412%, 24.313725%)" stroke-opacity="1" stroke-miterlimit="4" d="M 316 106 L 328 98 "/>
<path fill-rule="nonzero" fill="rgb(0%, 0%, 0%)" fill-opacity="1" stroke-width="1.8" stroke-linecap="butt" stroke-linejoin="miter" stroke="rgb(54.509804%, 43.529412%, 24.313725%)" stroke-opacity="1" stroke-miterlimit="4" d="M 302 128 L 316 120 "/>
<path fill-rule="nonzero" fill="rgb(0%, 0%, 0%)" fill-opacity="1" stroke-width="1.8" stroke-linecap="butt" stroke-linejoin="miter" stroke="rgb(54.509804%, 43.529412%, 24.313725%)" stroke-opacity="1" stroke-miterlimit="4" d="M 286 146 L 300 140 "/>
<path fill-rule="nonzero" fill="rgb(0%, 0%, 0%)" fill-opacity="1" stroke-width="1.8" stroke-linecap="butt" stroke-linejoin="miter" stroke="rgb(54.509804%, 43.529412%, 24.313725%)" stroke-opacity="1" stroke-miterlimit="4" d="M 272 160 L 284 156 "/>
<path fill-rule="nonzero" fill="rgb(78.823529%, 63.529412%, 15.294118%)" fill-opacity="1" stroke-width="5" stroke-linecap="butt" stroke-linejoin="miter" stroke="rgb(41.960784%, 32.941176%, 14.901961%)" stroke-opacity="1" stroke-miterlimit="4" d="M 171.999752 232 C 171.999752 178 308.000255 178 308.000255 232 C 308.000255 268 284.997483 284 240.000003 284 C 195.002524 284 171.999752 268 171.999752 232 Z M 171.999752 232 " transform="matrix(0.62, 0, 0, 0.5, 107.199997, 111)"/>
<path fill-rule="nonzero" fill="rgb(65.882353%, 51.764706%, 18.039216%)" fill-opacity="1" d="M 282.039062 209 C 291.960938 218 293.199219 234 283.28125 243 C 290.71875 231 289.480469 218 282.039062 209 Z M 282.039062 209 "/>
<path fill-rule="nonzero" fill="rgb(89.803922%, 77.254902%, 41.960784%)" fill-opacity="1" d="M 242.359375 225 C 242.359375 232.179688 239.304688 238 235.539062 238 C 231.773438 238 228.71875 232.179688 228.71875 225 C 228.71875 217.820312 231.773438 212 235.539062 212 C 239.304688 212 242.359375 217.820312 242.359375 225 Z M 242.359375 225 "/>
<path fill-rule="nonzero" fill="rgb(78.823529%, 63.529412%, 15.294118%)" fill-opacity="1" stroke-width="4.5" stroke-linecap="butt" stroke-linejoin="miter" stroke="rgb(41.960784%, 32.941176%, 14.901961%)" stroke-opacity="1" stroke-miterlimit="4" d="M 217.998995 182 L 217.998995 158 L 262.001011 158 L 262.001011 182 C 248.001515 176 231.998491 176 217.998995 182 Z M 217.998995 182 " transform="matrix(0.62, 0, 0, 0.5, 107.199997, 111)"/>
<path fill-rule="nonzero" fill="rgb(85.098039%, 72.156863%, 36.078431%)" fill-opacity="1" stroke-width="3.6" stroke-linecap="butt" stroke-linejoin="miter" stroke="rgb(41.960784%, 32.941176%, 14.901961%)" stroke-opacity="1" stroke-miterlimit="4" d="M 212.001011 144 L 267.998995 144 C 272.415577 144 276.000507 147.578125 276.000507 152 C 276.000507 156.421875 272.415577 160 267.998995 160 L 212.001011 160 C 207.584429 160 203.999499 156.421875 203.999499 152 C 203.999499 147.578125 207.584429 144 212.001011 144 Z M 212.001011 144 " transform="matrix(0.62, 0, 0, 0.5, 107.199997, 111)"/>
<path fill-rule="nonzero" fill="rgb(18.039216%, 14.117647%, 6.27451%)" fill-opacity="1" d="M 272.121094 184 C 272.121094 185.796875 264.902344 187.25 256 187.25 C 247.097656 187.25 239.878906 185.796875 239.878906 184 C 239.878906 182.203125 247.097656 180.75 256 180.75 C 264.902344 180.75 272.121094 182.203125 272.121094 184 Z M 272.121094 184 "/>
<path fill-rule="nonzero" fill="rgb(24.705882%, 44.705882%, 40.784314%)" fill-opacity="1" d="M 266.539062 184 C 266.539062 185.105469 261.820312 186 256 186 C 250.179688 186 245.460938 185.105469 245.460938 184 C 245.460938 182.894531 250.179688 182 256 182 C 261.820312 182 266.539062 182.894531 266.539062 184 Z M 266.539062 184 "/>
<path fill-rule="nonzero" fill="rgb(24.705882%, 44.705882%, 40.784314%)" fill-opacity="1" d="M 256 260 C 259 264 261 267 261 270 C 261.707031 272.257812 260.886719 274.71875 258.964844 276.101562 C 257.046875 277.484375 254.453125 277.484375 252.535156 276.101562 C 250.613281 274.71875 249.792969 272.257812 250.5 270 C 250.5 267 253 264 256 260 Z M 256 260 "/>
<path fill-rule="nonzero" fill="rgb(36.862745%, 54.509804%, 49.411765%)" fill-opacity="1" d="M 256 282 C 258.5 285.5 260.5 288 260.5 290.5 C 261.242188 292.496094 260.578125 294.738281 258.875 296.015625 C 257.171875 297.289062 254.828125 297.289062 253.125 296.015625 C 251.421875 294.738281 250.757812 292.496094 251.5 290.5 C 251.5 288 253.5 285.5 256 282 Z M 256 282 "/>
<path fill-rule="nonzero" fill="rgb(85.098039%, 72.156863%, 36.078431%)" fill-opacity="1" d="M 250 306 L 262 306 L 262 318 L 250 318 Z M 250 306 "/>
<path fill-rule="nonzero" fill="rgb(78.823529%, 63.529412%, 15.294118%)" fill-opacity="1" d="M 251.5 330 L 260.5 330 L 260.5 339 L 251.5 339 Z M 251.5 330 "/>
<path fill-rule="nonzero" fill="rgb(65.882353%, 51.764706%, 18.039216%)" fill-opacity="1" d="M 253 352 L 260 352 L 260 359 L 253 359 Z M 253 352 "/>
<path fill-rule="nonzero" fill="rgb(24.705882%, 44.705882%, 40.784314%)" fill-opacity="1" d="M 224 268 C 226 271 227.5 273 227.5 275 C 228.265625 276.761719 227.742188 278.816406 226.226562 279.996094 C 224.710938 281.171875 222.589844 281.171875 221.074219 279.996094 C 219.554688 278.816406 219.03125 276.761719 219.800781 275 C 219.800781 273 222 271 224 268 Z M 224 268 "/>
<path fill-rule="nonzero" fill="rgb(85.098039%, 72.156863%, 36.078431%)" fill-opacity="1" d="M 219 294 L 228 294 L 228 303 L 219 303 Z M 219 294 "/>
<path fill-rule="nonzero" fill="rgb(78.823529%, 63.529412%, 15.294118%)" fill-opacity="1" d="M 221 318 L 228 318 L 228 325 L 221 325 Z M 221 318 "/>
<path fill-rule="nonzero" fill="rgb(24.705882%, 44.705882%, 40.784314%)" fill-opacity="1" d="M 288 268 C 290 271 291.5 273 291.5 275 C 292.265625 276.761719 291.742188 278.816406 290.226562 279.996094 C 288.710938 281.171875 286.589844 281.171875 285.074219 279.996094 C 283.554688 278.816406 283.03125 276.761719 283.800781 275 C 283.800781 273 286 271 288 268 Z M 288 268 "/>
<path fill-rule="nonzero" fill="rgb(85.098039%, 72.156863%, 36.078431%)" fill-opacity="1" d="M 283 294 L 292 294 L 292 303 L 283 303 Z M 283 294 "/>
<path fill-rule="nonzero" fill="rgb(78.823529%, 63.529412%, 15.294118%)" fill-opacity="1" d="M 285 318 L 292 318 L 292 325 L 285 325 Z M 285 318 "/>
<path fill-rule="nonzero" fill="rgb(29.019608%, 20%, 10.980392%)" fill-opacity="1" stroke-width="2.5" stroke-linecap="butt" stroke-linejoin="miter" stroke="rgb(18.039216%, 14.117647%, 6.27451%)" stroke-opacity="1" stroke-miterlimit="4" d="M 62 189 C 150 180 330 180 418 189 L 409 231 C 330 241 150 241 71 231 Z M 62 189 " transform="matrix(1, 0, 0, 1, 16, 206)"/>
<path fill-rule="nonzero" fill="rgb(89.411765%, 83.921569%, 67.45098%)" fill-opacity="1" stroke-width="2" stroke-linecap="butt" stroke-linejoin="miter" stroke="rgb(41.960784%, 32.941176%, 14.901961%)" stroke-opacity="1" stroke-miterlimit="4" d="M 70 192 C 150 184 330 184 410 192 L 402 226 C 330 234 150 234 78 226 Z M 70 192 " transform="matrix(1, 0, 0, 1, 16, 206)"/>
<path fill="none" stroke-width="1.5" stroke-linecap="butt" stroke-linejoin="miter" stroke="rgb(76.862745%, 68.235294%, 45.490196%)" stroke-opacity="1" stroke-miterlimit="4" d="M 78 202 C 160 195 320 195 402 202 " transform="matrix(1, 0, 0, 1, 16, 206)"/>
<path fill="none" stroke-width="1.5" stroke-linecap="butt" stroke-linejoin="miter" stroke="rgb(76.862745%, 68.235294%, 45.490196%)" stroke-opacity="1" stroke-miterlimit="4" d="M 80 210 C 160 203 320 203 400 210 " transform="matrix(1, 0, 0, 1, 16, 206)"/>
<path fill="none" stroke-width="1.5" stroke-linecap="butt" stroke-linejoin="miter" stroke="rgb(76.862745%, 68.235294%, 45.490196%)" stroke-opacity="1" stroke-miterlimit="4" d="M 82 218 C 160 211 320 211 398 218 " transform="matrix(1, 0, 0, 1, 16, 206)"/>
<path fill-rule="nonzero" fill="rgb(94.901961%, 90.196078%, 75.294118%)" fill-opacity="1" stroke-width="2" stroke-linecap="butt" stroke-linejoin="miter" stroke="rgb(41.960784%, 32.941176%, 14.901961%)" stroke-opacity="1" stroke-miterlimit="4" d="M 78 182 C 120 150 170 138 214 144 C 228 148 236 155 240 164 L 240 196 C 180 188 124 190 76 192 Z M 78 182 " transform="matrix(1, 0, 0, 1, 16, 206)"/>
<path fill-rule="nonzero" fill="rgb(94.901961%, 90.196078%, 75.294118%)" fill-opacity="1" stroke-width="2" stroke-linecap="butt" stroke-linejoin="miter" stroke="rgb(41.960784%, 32.941176%, 14.901961%)" stroke-opacity="1" stroke-miterlimit="4" d="M 402 182 C 360 150 310 138 266 144 C 252 148 244 155 240 164 L 240 196 C 300 188 356 190 404 192 Z M 402 182 " transform="matrix(1, 0, 0, 1, 16, 206)"/>
<path fill="none" stroke-width="1.5" stroke-linecap="butt" stroke-linejoin="miter" stroke="rgb(79.607843%, 71.764706%, 49.411765%)" stroke-opacity="1" stroke-miterlimit="4" d="M 96 180 C 140 152 180 144 216 150 " transform="matrix(1, 0, 0, 1, 16, 206)"/>
<path fill="none" stroke-width="1.5" stroke-linecap="butt" stroke-linejoin="miter" stroke="rgb(79.607843%, 71.764706%, 49.411765%)" stroke-opacity="1" stroke-miterlimit="4" d="M 384 180 C 340 152 300 144 264 150 " transform="matrix(1, 0, 0, 1, 16, 206)"/>
<path fill-rule="nonzero" fill="rgb(70.588235%, 60.784314%, 38.431373%)" fill-opacity="1" d="M 249 366 C 252 360 260 360 263 366 L 261 404 L 251 404 Z M 249 366 "/>
<path fill="none" stroke-width="2.5" stroke-linecap="butt" stroke-linejoin="miter" stroke="rgb(41.960784%, 32.941176%, 14.901961%)" stroke-opacity="1" stroke-miterlimit="4" d="M 240 162 L 240 196 " transform="matrix(1, 0, 0, 1, 16, 206)"/>
<path fill-rule="nonzero" fill="rgb(24.705882%, 44.705882%, 40.784314%)" fill-opacity="1" d="M 250 402 L 246 434 L 256 427 L 266 436 L 262 402 Z M 250 402 "/>
</svg>
