<?xml version="1.0" encoding="UTF-8"?>
<svg xmlns="http://www.w3.org/2000/svg" xmlns:xlink="http://www.w3.org/1999/xlink" width="380" height="96" viewBox="0 0 380 96">
<path fill-rule="nonzero" fill="rgb(23.137255%, 16.862745%, 9.411765%)" fill-opacity="1" d="M 24.851562 13 L 64.269531 13 C 72.472656 13 79.121094 19.648438 79.121094 27.851562 L 79.121094 67.269531 C 79.121094 75.472656 72.472656 82.121094 64.269531 82.121094 L 24.851562 82.121094 C 16.648438 82.121094 10 75.472656 10 67.269531 L 10 27.851562 C 10 19.648438 16.648438 13 24.851562 13 Z M 24.851562 13 "/>
<path fill-rule="nonzero" fill="rgb(34.117647%, 26.666667%, 12.156863%)" fill-opacity="1" d="M 25.660156 15.699219 L 63.460938 15.699219 C 70.617188 15.699219 76.421875 21.503906 76.421875 28.660156 L 76.421875 66.460938 C 76.421875 73.617188 70.617188 79.421875 63.460938 79.421875 L 25.660156 79.421875 C 18.503906 79.421875 12.699219 73.617188 12.699219 66.460938 L 12.699219 28.660156 C 12.699219 21.503906 18.503906 15.699219 25.660156 15.699219 Z M 25.660156 15.699219 "/>
<path fill="none" stroke-width="5" stroke-linecap="butt" stroke-linejoin="miter" stroke="rgb(78.823529%, 63.529412%, 15.294118%)" stroke-opacity="1" stroke-miterlimit="4" d="M 121.990736 37.991897 L 389.98841 37.991897 C 436.400446 37.991897 473.98725 75.607636 473.98725 121.990736 L 473.98725 389.98841 C 473.98725 436.400446 436.400446 473.98725 389.98841 473.98725 L 121.990736 473.98725 C 75.607636 473.98725 37.991897 436.400446 37.991897 389.98841 L 37.991897 121.990736 C 37.991897 75.607636 75.607636 37.991897 121.990736 37.991897 Z M 121.990736 37.991897 " transform="matrix(0.135, 0, 0, 0.135, 10, 13)"/>
<path fill="none" stroke-width="1.5" stroke-linecap="butt" stroke-linejoin="miter" stroke="rgb(54.509804%, 43.529412%, 24.313725%)" stroke-opacity="1" stroke-miterlimit="4" d="M 128.009254 55.989581 L 383.998827 55.989581 C 423.75577 55.989581 455.989565 88.223376 455.989565 128.009254 L 455.989565 383.998827 C 455.989565 423.75577 423.75577 455.989565 383.998827 455.989565 L 128.009254 455.989565 C 88.223376 455.989565 55.989581 423.75577 55.989581 383.998827 L 55.989581 128.009254 C 55.989581 88.223376 88.223376 55.989581 128.009254 55.989581 Z M 128.009254 55.989581 " transform="matrix(0.135, 0, 0, 0.135, 10, 13)"/>
<path fill="none" stroke-width="2" stroke-linecap="butt" stroke-linejoin="miter" stroke="rgb(78.823529%, 63.529412%, 15.294118%)" stroke-opacity="1" stroke-miterlimit="4" d="M 79.988574 80.000036 L 95.988501 80.000036 L 95.988501 95.999964 L 79.988574 95.999964 Z M 79.988574 80.000036 " transform="matrix(0.0954594, 0.0954594, -0.0954594, 0.0954594, 21.88, 8.079143)"/>
<path fill="none" stroke-width="2" stroke-linecap="butt" stroke-linejoin="miter" stroke="rgb(78.823529%, 63.529412%, 15.294118%)" stroke-opacity="1" stroke-miterlimit="4" d="M 415.985291 80.00332 L 431.985218 80.00332 L 431.985218 96.003247 L 415.985291 96.003247 Z M 415.985291 80.00332 " transform="matrix(0.0954594, 0.0954594, -0.0954594, 0.0954594, 35.165637, -23.995222)"/>
<path fill-rule="nonzero" fill="rgb(90.980392%, 83.137255%, 60.392157%)" fill-opacity="1" stroke-width="2" stroke-linecap="butt" stroke-linejoin="miter" stroke="rgb(54.509804%, 43.529412%, 24.313725%)" stroke-opacity="1" stroke-miterlimit="4" d="M 260.011564 176.012724 C 232.002306 149.999994 203.993047 116.001153 187.991891 82.002312 C 180.00578 66.001155 167.997679 55.989581 153.993049 49.999998 C 151.996522 66.001155 153.993049 85.995367 160.011568 103.993051 C 169.994206 135.995365 205.989575 164.004623 246.006935 189.988418 Z M 260.011564 176.012724 " transform="matrix(0.135, 0, 0, 0.135, 10, 13)"/>
<path fill-rule="nonzero" fill="rgb(78.823529%, 63.529412%, 15.294118%)" fill-opacity="1" d="M 45.101562 36.761719 C 41.320312 33.25 37.808594 28.929688 35.648438 24.609375 C 35.109375 23.261719 34.03125 21.640625 32.410156 20.558594 C 32.949219 22.988281 34.03125 26.230469 35.648438 29.46875 C 37.539062 33.25 40.78125 35.679688 43.75 37.839844 Z M 45.101562 36.761719 "/>
<path fill-rule="nonzero" fill="rgb(34.117647%, 26.666667%, 12.156863%)" fill-opacity="1" d="M 31.601562 23.261719 L 30.113281 22.179688 L 30.519531 24.878906 Z M 31.601562 23.261719 "/>
<path fill-rule="nonzero" fill="rgb(34.117647%, 26.666667%, 12.156863%)" fill-opacity="1" d="M 32.679688 27.578125 L 31.058594 26.769531 L 31.734375 29.46875 Z M 32.679688 27.578125 "/>
<path fill-rule="nonzero" fill="rgb(34.117647%, 26.666667%, 12.156863%)" fill-opacity="1" d="M 34.570312 31.898438 L 32.949219 31.359375 L 33.894531 33.789062 Z M 34.570312 31.898438 "/>
<path fill="none" stroke-width="2.5" stroke-linecap="butt" stroke-linejoin="miter" stroke="rgb(41.960784%, 32.941176%, 14.901961%)" stroke-opacity="1" stroke-miterlimit="4" d="M 253.993045 180.00578 C 223.98726 151.996522 198.003464 119.994208 182.002308 87.991895 C 176.012724 73.987266 166.001151 60.011572 157.002309 53.009257 " transform="matrix(0.135, 0, 0, 0.135, 10, 13)"/>
<path fill-rule="nonzero" fill="rgb(0%, 0%, 0%)" fill-opacity="1" stroke-width="1.8" stroke-linecap="butt" stroke-linejoin="miter" stroke="rgb(54.509804%, 43.529412%, 24.313725%)" stroke-opacity="1" stroke-miterlimit="4" d="M 196.006937 105.989579 L 183.998835 98.003468 " transform="matrix(0.135, 0, 0, 0.135, 10, 13)"/>
<path fill-rule="nonzero" fill="rgb(0%, 0%, 0%)" fill-opacity="1" stroke-width="1.8" stroke-linecap="butt" stroke-linejoin="miter" stroke="rgb(54.509804%, 43.529412%, 24.313725%)" stroke-opacity="1" stroke-miterlimit="4" d="M 210.011566 128.009254 L 196.006937 119.994208 " transform="matrix(0.135, 0, 0, 0.135, 10, 13)"/>
<path fill-rule="nonzero" fill="rgb(0%, 0%, 0%)" fill-opacity="1" stroke-width="1.8" stroke-linecap="butt" stroke-linejoin="miter" stroke="rgb(54.509804%, 43.529412%, 24.313725%)" stroke-opacity="1" stroke-miterlimit="4" d="M 226.012723 146.006939 L 212.008093 139.98842 " transform="matrix(0.135, 0, 0, 0.135, 10, 13)"/>
<path fill-rule="nonzero" fill="rgb(0%, 0%, 0%)" fill-opacity="1" stroke-width="1.8" stroke-linecap="butt" stroke-linejoin="miter" stroke="rgb(54.509804%, 43.529412%, 24.313725%)" stroke-opacity="1" stroke-miterlimit="4" d="M 239.988416 160.011568 L 228.00925 155.989577 " transform="matrix(0.135, 0, 0, 0.135, 10, 13)"/>
<path fill-rule="nonzero" fill="rgb(90.980392%, 83.137255%, 60.392157%)" fill-opacity="1" stroke-width="2" stroke-linecap="butt" stroke-linejoin="miter" stroke="rgb(54.509804%, 43.529412%, 24.313725%)" stroke-opacity="1" stroke-miterlimit="4" d="M 251.996518 176.012724 C 280.005776 149.999994 307.986099 116.001153 323.987256 82.002312 C 332.002302 66.001155 344.010403 55.989581 357.986097 49.999998 C 360.01156 66.001155 357.986097 85.995367 351.996514 103.993051 C 342.013875 135.995365 305.989571 164.004623 266.001147 189.988418 Z M 251.996518 176.012724 " transform="matrix(0.135, 0, 0, 0.135, 10, 13)"/>
<path fill-rule="nonzero" fill="rgb(78.823529%, 63.529412%, 15.294118%)" fill-opacity="1" d="M 44.019531 36.761719 C 47.800781 33.25 51.308594 28.929688 53.46875 24.609375 C 54.011719 23.261719 55.089844 21.640625 56.710938 20.558594 C 56.171875 22.988281 55.089844 26.230469 53.46875 29.46875 C 51.578125 33.25 48.339844 35.679688 45.371094 37.839844 Z M 44.019531 36.761719 "/>
<path fill-rule="nonzero" fill="rgb(34.117647%, 26.666667%, 12.156863%)" fill-opacity="1" d="M 57.519531 23.261719 L 59.003906 22.179688 L 58.601562 24.878906 Z M 57.519531 23.261719 "/>
<path fill-rule="nonzero" fill="rgb(34.117647%, 26.666667%, 12.156863%)" fill-opacity="1" d="M 56.441406 27.578125 L 58.058594 26.769531 L 57.386719 29.46875 Z M 56.441406 27.578125 "/>
<path fill-rule="nonzero" fill="rgb(34.117647%, 26.666667%, 12.156863%)" fill-opacity="1" d="M 54.550781 31.898438 L 56.171875 31.359375 L 55.226562 33.789062 Z M 54.550781 31.898438 "/>
<path fill="none" stroke-width="2.5" stroke-linecap="butt" stroke-linejoin="miter" stroke="rgb(41.960784%, 32.941176%, 14.901961%)" stroke-opacity="1" stroke-miterlimit="4" d="M 257.986101 180.00578 C 287.991887 151.996522 314.004617 119.994208 330.005774 87.991895 C 335.995357 73.987266 346.006931 60.011572 355.005773 53.009257 " transform="matrix(0.135, 0, 0, 0.135, 10, 13)"/>
<path fill-rule="nonzero" fill="rgb(0%, 0%, 0%)" fill-opacity="1" stroke-width="1.8" stroke-linecap="butt" stroke-linejoin="miter" stroke="rgb(54.509804%, 43.529412%, 24.313725%)" stroke-opacity="1" stroke-miterlimit="4" d="M 316.001145 105.989579 L 328.009246 98.003468 " transform="matrix(0.135, 0, 0, 0.135, 10, 13)"/>
<path fill-rule="nonzero" fill="rgb(0%, 0%, 0%)" fill-opacity="1" stroke-width="1.8" stroke-linecap="butt" stroke-linejoin="miter" stroke="rgb(54.509804%, 43.529412%, 24.313725%)" stroke-opacity="1" stroke-miterlimit="4" d="M 301.996516 128.009254 L 316.001145 119.994208 " transform="matrix(0.135, 0, 0, 0.135, 10, 13)"/>
<path fill-rule="nonzero" fill="rgb(0%, 0%, 0%)" fill-opacity="1" stroke-width="1.8" stroke-linecap="butt" stroke-linejoin="miter" stroke="rgb(54.509804%, 43.529412%, 24.313725%)" stroke-opacity="1" stroke-miterlimit="4" d="M 285.995359 146.006939 L 299.999988 139.98842 " transform="matrix(0.135, 0, 0, 0.135, 10, 13)"/>
<path fill-rule="nonzero" fill="rgb(0%, 0%, 0%)" fill-opacity="1" stroke-width="1.8" stroke-linecap="butt" stroke-linejoin="miter" stroke="rgb(54.509804%, 43.529412%, 24.313725%)" stroke-opacity="1" stroke-miterlimit="4" d="M 271.99073 160.011568 L 283.998831 155.989577 " transform="matrix(0.135, 0, 0, 0.135, 10, 13)"/>
<path fill-rule="nonzero" fill="rgb(78.823529%, 63.529412%, 15.294118%)" fill-opacity="1" stroke-width="5" stroke-linecap="butt" stroke-linejoin="miter" stroke="rgb(41.960784%, 32.941176%, 14.901961%)" stroke-opacity="1" stroke-miterlimit="4" d="M 171.985504 231.993038 C 171.985504 177.999984 307.980868 177.999984 307.980868 231.993038 C 307.980868 267.988406 285.019399 284.018498 239.983186 284.018498 C 194.993642 284.018498 171.985504 267.988406 171.985504 231.993038 Z M 171.985504 231.993038 " transform="matrix(0.0837, 0, 0, 0.0675, 24.472, 27.985001)"/>
<path fill-rule="nonzero" fill="rgb(65.882353%, 51.764706%, 18.039216%)" fill-opacity="1" d="M 48.074219 41.214844 C 49.414062 42.429688 49.582031 44.589844 48.242188 45.804688 C 49.246094 44.183594 49.078125 42.429688 48.074219 41.214844 Z M 48.074219 41.214844 "/>
<path fill-rule="nonzero" fill="rgb(89.803922%, 77.254902%, 41.960784%)" fill-opacity="1" d="M 42.71875 43.375 C 42.71875 44.34375 42.304688 45.128906 41.796875 45.128906 C 41.289062 45.128906 40.878906 44.34375 40.878906 43.375 C 40.878906 42.40625 41.289062 41.621094 41.796875 41.621094 C 42.304688 41.621094 42.71875 42.40625 42.71875 43.375 Z M 42.71875 43.375 "/>
<path fill-rule="nonzero" fill="rgb(78.823529%, 63.529412%, 15.294118%)" fill-opacity="1" stroke-width="4.5" stroke-linecap="butt" stroke-linejoin="miter" stroke="rgb(41.960784%, 32.941176%, 14.901961%)" stroke-opacity="1" stroke-miterlimit="4" d="M 218.00178 181.99304 L 218.00178 157.976837 L 262.011261 157.976837 L 262.011261 181.99304 C 248.010366 175.974521 232.002675 175.974521 218.00178 181.99304 Z M 218.00178 181.99304 " transform="matrix(0.0837, 0, 0, 0.0675, 24.472, 27.985001)"/>
<path fill-rule="nonzero" fill="rgb(85.098039%, 72.156863%, 36.078431%)" fill-opacity="1" stroke-width="3.6" stroke-linecap="butt" stroke-linejoin="miter" stroke="rgb(41.960784%, 32.941176%, 14.901961%)" stroke-opacity="1" stroke-miterlimit="4" d="M 211.981395 143.972208 L 267.984976 143.972208 C 272.418593 143.972208 276.012156 147.560171 276.012156 152.016189 C 276.012156 156.414337 272.418593 160.0023 267.984976 160.0023 L 211.981395 160.0023 C 207.594448 160.0023 204.000884 156.414337 204.000884 152.016189 C 204.000884 147.560171 207.594448 143.972208 211.981395 143.972208 Z M 211.981395 143.972208 " transform="matrix(0.0837, 0, 0, 0.0675, 24.472, 27.985001)"/>
<path fill-rule="nonzero" fill="rgb(18.039216%, 14.117647%, 6.27451%)" fill-opacity="1" d="M 46.734375 37.839844 C 46.734375 38.082031 45.761719 38.277344 44.558594 38.277344 C 43.359375 38.277344 42.382812 38.082031 42.382812 37.839844 C 42.382812 37.597656 43.359375 37.402344 44.558594 37.402344 C 45.761719 37.402344 46.734375 37.597656 46.734375 37.839844 Z M 46.734375 37.839844 "/>
<path fill-rule="nonzero" fill="rgb(24.705882%, 44.705882%, 40.784314%)" fill-opacity="1" d="M 45.984375 37.839844 C 45.984375 37.988281 45.347656 38.109375 44.558594 38.109375 C 43.773438 38.109375 43.136719 37.988281 43.136719 37.839844 C 43.136719 37.691406 43.773438 37.570312 44.558594 37.570312 C 45.347656 37.570312 45.984375 37.691406 45.984375 37.839844 Z M 45.984375 37.839844 "/>
<path fill-rule="nonzero" fill="rgb(24.705882%, 44.705882%, 40.784314%)" fill-opacity="1" d="M 44.558594 48.101562 C 44.964844 48.640625 45.234375 49.046875 45.234375 49.449219 C 45.332031 49.753906 45.21875 50.085938 44.960938 50.273438 C 44.699219 50.460938 44.351562 50.460938 44.09375 50.273438 C 43.832031 50.085938 43.722656 49.753906 43.816406 49.449219 C 43.816406 49.046875 44.15625 48.640625 44.558594 48.101562 Z M 44.558594 48.101562 "/>
<path fill-rule="nonzero" fill="rgb(36.862745%, 54.509804%, 49.411765%)" fill-opacity="1" d="M 44.558594 51.070312 C 44.898438 51.542969 45.167969 51.878906 45.167969 52.21875 C 45.265625 52.488281 45.179688 52.789062 44.949219 52.960938 C 44.71875 53.132812 44.402344 53.132812 44.171875 52.960938 C 43.941406 52.789062 43.851562 52.488281 43.953125 52.21875 C 43.953125 51.878906 44.222656 51.542969 44.558594 51.070312 Z M 44.558594 51.070312 "/>
<path fill-rule="nonzero" fill="rgb(85.098039%, 72.156863%, 36.078431%)" fill-opacity="1" d="M 43.75 54.308594 L 45.371094 54.308594 L 45.371094 55.929688 L 43.75 55.929688 Z M 43.75 54.308594 "/>
<path fill-rule="nonzero" fill="rgb(78.823529%, 63.529412%, 15.294118%)" fill-opacity="1" d="M 43.953125 57.550781 L 45.167969 57.550781 L 45.167969 58.765625 L 43.953125 58.765625 Z M 43.953125 57.550781 "/>
<path fill-rule="nonzero" fill="rgb(65.882353%, 51.764706%, 18.039216%)" fill-opacity="1" d="M 44.15625 60.519531 L 45.101562 60.519531 L 45.101562 61.464844 L 44.15625 61.464844 Z M 44.15625 60.519531 "/>
<path fill-rule="nonzero" fill="rgb(24.705882%, 44.705882%, 40.784314%)" fill-opacity="1" d="M 40.238281 49.179688 C 40.511719 49.585938 40.710938 49.855469 40.710938 50.125 C 40.816406 50.363281 40.746094 50.640625 40.539062 50.800781 C 40.335938 50.957031 40.050781 50.957031 39.84375 50.800781 C 39.640625 50.640625 39.570312 50.363281 39.671875 50.125 C 39.671875 49.855469 39.96875 49.585938 40.238281 49.179688 Z M 40.238281 49.179688 "/>
<path fill-rule="nonzero" fill="rgb(85.098039%, 72.156863%, 36.078431%)" fill-opacity="1" d="M 39.566406 52.691406 L 40.78125 52.691406 L 40.78125 53.90625 L 39.566406 53.90625 Z M 39.566406 52.691406 "/>
<path fill-rule="nonzero" fill="rgb(78.823529%, 63.529412%, 15.294118%)" fill-opacity="1" d="M 39.835938 55.929688 L 40.78125 55.929688 L 40.78125 56.875 L 39.835938 56.875 Z M 39.835938 55.929688 "/>
<path fill-rule="nonzero" fill="rgb(24.705882%, 44.705882%, 40.784314%)" fill-opacity="1" d="M 48.878906 49.179688 C 49.148438 49.585938 49.351562 49.855469 49.351562 50.125 C 49.457031 50.363281 49.386719 50.640625 49.179688 50.800781 C 48.976562 50.957031 48.691406 50.957031 48.484375 50.800781 C 48.28125 50.640625 48.210938 50.363281 48.3125 50.125 C 48.3125 49.855469 48.609375 49.585938 48.878906 49.179688 Z M 48.878906 49.179688 "/>
<path fill-rule="nonzero" fill="rgb(85.098039%, 72.156863%, 36.078431%)" fill-opacity="1" d="M 48.203125 52.691406 L 49.421875 52.691406 L 49.421875 53.90625 L 48.203125 53.90625 Z M 48.203125 52.691406 "/>
<path fill-rule="nonzero" fill="rgb(78.823529%, 63.529412%, 15.294118%)" fill-opacity="1" d="M 48.476562 55.929688 L 49.421875 55.929688 L 49.421875 56.875 L 48.476562 56.875 Z M 48.476562 55.929688 "/>
<path fill-rule="nonzero" fill="rgb(29.019608%, 20%, 10.980392%)" fill-opacity="1" stroke-width="2.5" stroke-linecap="butt" stroke-linejoin="miter" stroke="rgb(18.039216%, 14.117647%, 6.27451%)" stroke-opacity="1" stroke-miterlimit="4" d="M 62.009256 188.994197 C 150.001151 179.995355 330.006931 179.995355 417.998825 188.994197 L 408.999983 231.008084 C 330.006931 240.990723 150.001151 240.990723 71.008098 231.008084 Z M 62.009256 188.994197 " transform="matrix(0.135, 0, 0, 0.135, 12.16, 40.810001)"/>
<path fill-rule="nonzero" fill="rgb(89.411765%, 83.921569%, 67.45098%)" fill-opacity="1" stroke-width="2" stroke-linecap="butt" stroke-linejoin="miter" stroke="rgb(41.960784%, 32.941176%, 14.901961%)" stroke-opacity="1" stroke-miterlimit="4" d="M 69.995367 192.003456 C 150.001151 183.98841 330.006931 183.98841 410.012715 192.003456 L 401.997669 226.002298 C 330.006931 233.988408 150.001151 233.988408 78.010413 226.002298 Z M 69.995367 192.003456 " transform="matrix(0.135, 0, 0, 0.135, 12.16, 40.810001)"/>
<path fill="none" stroke-width="1.5" stroke-linecap="butt" stroke-linejoin="miter" stroke="rgb(76.862745%, 68.235294%, 45.490196%)" stroke-opacity="1" stroke-miterlimit="4" d="M 78.010413 201.986095 C 160.012724 195.012716 319.995357 195.012716 401.997669 201.986095 " transform="matrix(0.135, 0, 0, 0.135, 12.16, 40.810001)"/>
<path fill="none" stroke-width="1.5" stroke-linecap="butt" stroke-linejoin="miter" stroke="rgb(76.862745%, 68.235294%, 45.490196%)" stroke-opacity="1" stroke-miterlimit="4" d="M 80.006941 210.001141 C 160.012724 202.998826 319.995357 202.998826 400.001141 210.001141 " transform="matrix(0.135, 0, 0, 0.135, 12.16, 40.810001)"/>
<path fill="none" stroke-width="1.5" stroke-linecap="butt" stroke-linejoin="miter" stroke="rgb(76.862745%, 68.235294%, 45.490196%)" stroke-opacity="1" stroke-miterlimit="4" d="M 82.003468 217.987252 C 160.012724 211.013872 319.995357 211.013872 398.004613 217.987252 " transform="matrix(0.135, 0, 0, 0.135, 12.16, 40.810001)"/>
<path fill-rule="nonzero" fill="rgb(94.901961%, 90.196078%, 75.294118%)" fill-opacity="1" stroke-width="2" stroke-linecap="butt" stroke-linejoin="miter" stroke="rgb(41.960784%, 32.941176%, 14.901961%)" stroke-opacity="1" stroke-miterlimit="4" d="M 78.010413 181.991883 C 119.995365 149.989569 169.995363 138.010403 214.005778 143.999986 C 228.010407 147.993041 235.996518 154.995356 239.989573 163.994198 L 239.989573 195.996512 C 180.006937 188.010401 123.98842 190.006929 76.013885 192.003456 Z M 78.010413 181.991883 " transform="matrix(0.135, 0, 0, 0.135, 12.16, 40.810001)"/>
<path fill-rule="nonzero" fill="rgb(94.901961%, 90.196078%, 75.294118%)" fill-opacity="1" stroke-width="2" stroke-linecap="butt" stroke-linejoin="miter" stroke="rgb(41.960784%, 32.941176%, 14.901961%)" stroke-opacity="1" stroke-miterlimit="4" d="M 401.997669 181.991883 C 360.012717 149.989569 310.012719 138.010403 266.002304 143.999986 C 251.997675 147.993041 244.011564 154.995356 239.989573 163.994198 L 239.989573 195.996512 C 300.001145 188.010401 355.990726 190.006929 403.994196 192.003456 Z M 401.997669 181.991883 " transform="matrix(0.135, 0, 0, 0.135, 12.16, 40.810001)"/>
<path fill="none" stroke-width="1.5" stroke-linecap="butt" stroke-linejoin="miter" stroke="rgb(79.607843%, 71.764706%, 49.411765%)" stroke-opacity="1" stroke-miterlimit="4" d="M 96.008097 179.995355 C 139.989577 151.986097 180.006937 143.999986 216.002306 149.989569 " transform="matrix(0.135, 0, 0, 0.135, 12.16, 40.810001)"/>
<path fill="none" stroke-width="1.5" stroke-linecap="butt" stroke-linejoin="miter" stroke="rgb(79.607843%, 71.764706%, 49.411765%)" stroke-opacity="1" stroke-miterlimit="4" d="M 383.999984 179.995355 C 339.989569 151.986097 300.001145 143.999986 264.005776 149.989569 " transform="matrix(0.135, 0, 0, 0.135, 12.16, 40.810001)"/>
<path fill-rule="nonzero" fill="rgb(70.588235%, 60.784314%, 38.431373%)" fill-opacity="1" d="M 43.613281 62.410156 C 44.019531 61.601562 45.101562 61.601562 45.503906 62.410156 L 45.234375 67.539062 L 43.886719 67.539062 Z M 43.613281 62.410156 "/>
<path fill="none" stroke-width="2.5" stroke-linecap="butt" stroke-linejoin="miter" stroke="rgb(41.960784%, 32.941176%, 14.901961%)" stroke-opacity="1" stroke-miterlimit="4" d="M 239.989573 161.997671 L 239.989573 195.996512 " transform="matrix(0.135, 0, 0, 0.135, 12.16, 40.810001)"/>
<path fill-rule="nonzero" fill="rgb(24.705882%, 44.705882%, 40.784314%)" fill-opacity="1" d="M 43.75 67.269531 L 43.210938 71.589844 L 44.558594 70.644531 L 45.910156 71.859375 L 45.371094 67.269531 Z M 43.75 67.269531 "/>
<path fill-rule="nonzero" fill="rgb(89.019608%, 80%, 56.078431%)" fill-opacity="1" d="M 126.28125 56 L 112.695312 56 L 112.695312 54.628906 C 113.328125 54.582031 114.070312 54.46875 114.929688 54.285156 C 115.785156 54.105469 116.210938 53.878906 116.210938 53.609375 C 116.210938 53.515625 116.203125 53.410156 116.183594 53.292969 C 116.167969 53.175781 116.117188 53.015625 116.035156 52.820312 L 113.90625 47.648438 L 105.296875 47.648438 C 105.097656 48.128906 104.875 48.695312 104.636719 49.335938 C 104.394531 49.980469 104.1875 50.554688 104.011719 51.0625 C 103.789062 51.71875 103.65625 52.191406 103.617188 52.484375 C 103.574219 52.777344 103.554688 52.984375 103.554688 53.101562 C 103.554688 53.476562 103.839844 53.792969 104.40625 54.058594 C 104.976562 54.320312 105.921875 54.511719 107.246094 54.628906 L 107.246094 56 L 97.015625 56 L 97.015625 54.628906 C 97.402344 54.605469 97.839844 54.542969 98.324219 54.445312 C 98.8125 54.34375 99.195312 54.207031 99.476562 54.03125 C 99.957031 53.75 100.363281 53.40625 100.699219 52.992188 C 101.03125 52.582031 101.3125 52.097656 101.53125 51.535156 C 102.890625 48.242188 104.253906 44.945312 105.621094 41.640625 C 106.984375 38.335938 108.492188 34.6875 110.148438 30.703125 L 113.664062 30.703125 C 115.960938 36.351562 117.757812 40.820312 119.058594 44.101562 C 120.359375 47.382812 121.46875 50.101562 122.382812 52.257812 C 122.535156 52.609375 122.726562 52.925781 122.960938 53.214844 C 123.195312 53.5 123.53125 53.773438 123.960938 54.03125 C 124.289062 54.21875 124.671875 54.359375 125.105469 54.453125 C 125.539062 54.546875 125.929688 54.605469 126.28125 54.628906 Z M 113.1875 45.910156 L 109.566406 36.875 L 106 45.910156 Z M 139.023438 56 L 128 56 L 128 54.71875 C 128.304688 54.695312 128.601562 54.664062 128.886719 54.628906 C 129.175781 54.59375 129.429688 54.535156 129.652344 54.453125 C 130.027344 54.3125 130.28125 54.109375 130.417969 53.847656 C 130.550781 53.582031 130.617188 53.234375 130.617188 52.800781 L 130.617188 33.324219 C 130.617188 32.878906 130.527344 32.464844 130.347656 32.085938 C 130.164062 31.703125 129.921875 31.414062 129.617188 31.214844 C 129.382812 31.0625 129.027344 30.914062 128.554688 30.773438 C 128.078125 30.632812 127.660156 30.554688 127.296875 30.53125 L 127.296875 29.246094 L 136.140625 28.789062 L 136.402344 29.070312 L 136.402344 52.570312 C 136.402344 53.003906 136.476562 53.359375 136.632812 53.625 C 136.785156 53.894531 137.03125 54.109375 137.367188 54.257812 C 137.601562 54.363281 137.851562 54.460938 138.109375 54.539062 C 138.367188 54.621094 138.671875 54.679688 139.023438 54.71875 Z M 153.839844 48.351562 L 143.183594 48.351562 L 143.183594 44.46875 L 153.839844 44.46875 Z M 198.550781 32.460938 C 198.1875 32.496094 197.824219 32.578125 197.464844 32.699219 C 197.101562 32.824219 196.742188 32.976562 196.390625 33.164062 C 195.851562 33.46875 195.46875 33.804688 195.238281 34.167969 C 195.011719 34.53125 194.800781 34.96875 194.613281 35.484375 C 193.96875 37.265625 192.976562 40.121094 191.636719 44.046875 C 190.292969 47.972656 188.894531 52.050781 187.441406 56.28125 L 183.910156 56.28125 L 177.316406 37.734375 L 171.378906 56.28125 L 167.84375 56.28125 C 165.886719 50.585938 164.386719 46.199219 163.34375 43.125 C 162.300781 40.046875 161.421875 37.46875 160.707031 35.382812 C 160.484375 34.75 160.230469 34.289062 159.949219 34 C 159.667969 33.714844 159.308594 33.421875 158.863281 33.132812 C 158.546875 32.921875 158.207031 32.765625 157.851562 32.664062 C 157.492188 32.566406 157.082031 32.484375 156.613281 32.429688 L 156.613281 31.054688 L 169.917969 31.054688 L 169.917969 32.390625 C 169.132812 32.484375 168.546875 32.578125 168.160156 32.664062 C 167.773438 32.753906 167.46875 32.84375 167.246094 32.9375 C 167.035156 33.03125 166.90625 33.132812 166.859375 33.234375 C 166.8125 33.339844 166.789062 33.4375 166.789062 33.515625 C 166.789062 33.679688 166.808594 33.839844 166.851562 33.992188 C 166.890625 34.144531 166.933594 34.320312 166.980469 34.519531 C 167.261719 35.433594 167.832031 37.167969 168.6875 39.722656 C 169.542969 42.277344 170.597656 45.445312 171.851562 49.234375 L 177.527344 31.054688 L 181.253906 31.054688 L 187.847656 49.796875 C 188.820312 46.785156 189.597656 44.320312 190.175781 42.414062 C 190.757812 40.503906 191.246094 38.867188 191.644531 37.507812 C 191.878906 36.675781 192.066406 35.976562 192.207031 35.414062 C 192.347656 34.851562 192.417969 34.367188 192.417969 33.957031 C 192.417969 33.710938 192.304688 33.5 192.074219 33.324219 C 191.847656 33.148438 191.539062 32.996094 191.152344 32.867188 C 190.824219 32.761719 190.398438 32.675781 189.878906 32.613281 C 189.355469 32.546875 188.902344 32.5 188.515625 32.460938 L 188.515625 31.054688 L 198.550781 31.054688 Z M 220.992188 55.632812 C 220.476562 55.855469 219.867188 56.058594 219.164062 56.246094 C 218.460938 56.433594 217.71875 56.527344 216.933594 56.527344 C 215.492188 56.527344 214.429688 56.3125 213.75 55.886719 C 213.070312 55.457031 212.609375 54.84375 212.363281 54.046875 L 212.257812 54.046875 C 211.859375 54.445312 211.476562 54.789062 211.105469 55.070312 C 210.738281 55.351562 210.34375 55.589844 209.921875 55.789062 C 209.371094 56.046875 208.839844 56.238281 208.328125 56.359375 C 207.820312 56.484375 207.109375 56.546875 206.195312 56.546875 C 204.835938 56.546875 203.671875 56.144531 202.710938 55.339844 C 201.75 54.539062 201.273438 53.476562 201.273438 52.148438 C 201.273438 51.386719 201.375 50.742188 201.585938 50.207031 C 201.796875 49.675781 202.097656 49.203125 202.484375 48.792969 C 202.835938 48.417969 203.242188 48.109375 203.707031 47.859375 C 204.167969 47.613281 204.675781 47.386719 205.226562 47.175781 C 206.28125 46.789062 207.546875 46.386719 209.023438 45.972656 C 210.5 45.554688 211.578125 45.183594 212.257812 44.855469 L 212.257812 43.167969 C 212.257812 42.875 212.234375 42.488281 212.1875 42.007812 C 212.140625 41.527344 212.039062 41.125 211.890625 40.796875 C 211.726562 40.421875 211.46875 40.101562 211.117188 39.84375 C 210.765625 39.585938 210.300781 39.460938 209.726562 39.460938 C 209.210938 39.460938 208.78125 39.53125 208.433594 39.679688 C 208.089844 39.824219 207.8125 39.976562 207.601562 40.125 C 207.636719 40.359375 207.734375 40.71875 207.898438 41.199219 C 208.0625 41.679688 208.144531 42.140625 208.144531 42.585938 C 208.144531 42.785156 208.09375 43.035156 207.984375 43.335938 C 207.878906 43.632812 207.726562 43.871094 207.53125 44.046875 C 207.261719 44.28125 206.957031 44.460938 206.625 44.59375 C 206.289062 44.722656 205.777344 44.785156 205.085938 44.785156 C 204.101562 44.785156 203.359375 44.546875 202.851562 44.074219 C 202.347656 43.597656 202.097656 42.980469 202.097656 42.21875 C 202.097656 41.5625 202.359375 40.972656 202.878906 40.453125 C 203.402344 39.929688 204.039062 39.5 204.789062 39.160156 C 205.527344 38.808594 206.375 38.535156 207.335938 38.34375 C 208.296875 38.148438 209.1875 38.054688 210.007812 38.054688 C 211.144531 38.054688 212.1875 38.121094 213.136719 38.253906 C 214.085938 38.390625 214.941406 38.667969 215.703125 39.089844 C 216.429688 39.5 217.007812 40.09375 217.433594 40.875 C 217.863281 41.652344 218.078125 42.671875 218.078125 43.921875 C 218.078125 45.246094 218.050781 46.820312 217.996094 48.632812 C 217.945312 50.449219 217.917969 51.648438 217.917969 52.21875 C 217.917969 52.746094 217.996094 53.164062 218.15625 53.46875 C 218.3125 53.773438 218.554688 54 218.882812 54.15625 C 219.082031 54.25 219.398438 54.304688 219.824219 54.320312 C 220.253906 54.339844 220.640625 54.347656 220.992188 54.347656 Z M 212.257812 46.472656 C 211.601562 46.695312 210.953125 46.949219 210.304688 47.238281 C 209.660156 47.523438 209.132812 47.828125 208.726562 48.140625 C 208.292969 48.46875 207.953125 48.890625 207.703125 49.398438 C 207.457031 49.910156 207.335938 50.507812 207.335938 51.203125 C 207.335938 52.117188 207.542969 52.777344 207.960938 53.1875 C 208.375 53.597656 208.890625 53.804688 209.5 53.804688 C 210.144531 53.804688 210.671875 53.671875 211.089844 53.40625 C 211.503906 53.144531 211.871094 52.820312 212.1875 52.429688 Z M 241.855469 41.78125 C 241.855469 42.671875 241.578125 43.453125 241.03125 44.125 C 240.480469 44.800781 239.75 45.136719 238.851562 45.136719 C 237.996094 45.136719 237.269531 44.921875 236.679688 44.484375 C 236.085938 44.050781 235.789062 43.414062 235.789062 42.570312 C 235.789062 42.160156 235.820312 41.839844 235.878906 41.613281 C 235.9375 41.382812 235.992188 41.171875 236.039062 40.96875 C 235.5 40.992188 234.929688 41.179688 234.332031 41.53125 C 233.734375 41.882812 233.207031 42.351562 232.75 42.9375 L 232.75 52.589844 C 232.75 53 232.8125 53.339844 232.945312 53.609375 C 233.074219 53.878906 233.289062 54.089844 233.59375 54.242188 C 233.851562 54.371094 234.269531 54.480469 234.851562 54.566406 C 235.429688 54.65625 235.851562 54.703125 236.109375 54.71875 L 236.109375 56 L 224.347656 56 L 224.347656 54.71875 C 224.640625 54.695312 224.9375 54.660156 225.234375 54.621094 C 225.535156 54.578125 225.789062 54.523438 226 54.453125 C 226.375 54.324219 226.632812 54.125 226.773438 53.855469 C 226.914062 53.585938 226.984375 53.234375 226.984375 52.800781 L 226.984375 42.570312 C 226.984375 42.148438 226.882812 41.769531 226.6875 41.4375 C 226.488281 41.101562 226.246094 40.835938 225.964844 40.636719 C 225.753906 40.496094 225.488281 40.378906 225.164062 40.285156 C 224.84375 40.191406 224.488281 40.125 224.101562 40.09375 L 224.101562 38.808594 L 232.484375 38.351562 L 232.75 38.617188 L 232.75 41.164062 L 232.820312 41.164062 C 233.628906 40.226562 234.488281 39.492188 235.394531 38.957031 C 236.304688 38.425781 237.25 38.15625 238.234375 38.15625 C 239.324219 38.15625 240.199219 38.496094 240.863281 39.167969 C 241.523438 39.84375 241.855469 40.710938 241.855469 41.78125 Z M 262.578125 41.78125 C 262.578125 42.671875 262.300781 43.453125 261.753906 44.125 C 261.203125 44.800781 260.472656 45.136719 259.574219 45.136719 C 258.71875 45.136719 257.992188 44.921875 257.402344 44.484375 C 256.808594 44.050781 256.511719 43.414062 256.511719 42.570312 C 256.511719 42.160156 256.542969 41.839844 256.601562 41.613281 C 256.660156 41.382812 256.714844 41.171875 256.761719 40.96875 C 256.222656 40.992188 255.652344 41.179688 255.054688 41.53125 C 254.457031 41.882812 253.929688 42.351562 253.472656 42.9375 L 253.472656 52.589844 C 253.472656 53 253.535156 53.339844 253.667969 53.609375 C 253.796875 53.878906 254.011719 54.089844 254.316406 54.242188 C 254.574219 54.371094 254.992188 54.480469 255.574219 54.566406 C 256.152344 54.65625 256.574219 54.703125 256.832031 54.71875 L 256.832031 56 L 245.070312 56 L 245.070312 54.71875 C 245.363281 54.695312 245.660156 54.660156 245.957031 54.621094 C 246.257812 54.578125 246.511719 54.523438 246.722656 54.453125 C 247.097656 54.324219 247.355469 54.125 247.496094 53.855469 C 247.636719 53.585938 247.707031 53.234375 247.707031 52.800781 L 247.707031 42.570312 C 247.707031 42.148438 247.605469 41.769531 247.410156 41.4375 C 247.210938 41.101562 246.96875 40.835938 246.6875 40.636719 C 246.476562 40.496094 246.210938 40.378906 245.886719 40.285156 C 245.566406 40.191406 245.210938 40.125 244.824219 40.09375 L 244.824219 38.808594 L 253.207031 38.351562 L 253.472656 38.617188 L 253.472656 41.164062 L 253.542969 41.164062 C 254.351562 40.226562 255.210938 39.492188 256.117188 38.957031 C 257.027344 38.425781 257.972656 38.15625 258.957031 38.15625 C 260.046875 38.15625 260.921875 38.496094 261.585938 39.167969 C 262.246094 39.84375 262.578125 40.710938 262.578125 41.78125 Z M 285.882812 55.632812 C 285.367188 55.855469 284.757812 56.058594 284.054688 56.246094 C 283.351562 56.433594 282.609375 56.527344 281.824219 56.527344 C 280.382812 56.527344 279.320312 56.3125 278.640625 55.886719 C 277.960938 55.457031 277.5 54.84375 277.253906 54.046875 L 277.148438 54.046875 C 276.75 54.445312 276.367188 54.789062 275.996094 55.070312 C 275.628906 55.351562 275.234375 55.589844 274.8125 55.789062 C 274.261719 56.046875 273.730469 56.238281 273.21875 56.359375 C 272.710938 56.484375 272 56.546875 271.085938 56.546875 C 269.726562 56.546875 268.5625 56.144531 267.601562 55.339844 C 266.640625 54.539062 266.164062 53.476562 266.164062 52.148438 C 266.164062 51.386719 266.265625 50.742188 266.476562 50.207031 C 266.6875 49.675781 266.988281 49.203125 267.375 48.792969 C 267.726562 48.417969 268.132812 48.109375 268.597656 47.859375 C 269.058594 47.613281 269.566406 47.386719 270.117188 47.175781 C 271.171875 46.789062 272.4375 46.386719 273.914062 45.972656 C 275.390625 45.554688 276.46875 45.183594 277.148438 44.855469 L 277.148438 43.167969 C 277.148438 42.875 277.125 42.488281 277.078125 42.007812 C 277.03125 41.527344 276.929688 41.125 276.78125 40.796875 C 276.617188 40.421875 276.359375 40.101562 276.007812 39.84375 C 275.65625 39.585938 275.191406 39.460938 274.617188 39.460938 C 274.101562 39.460938 273.671875 39.53125 273.324219 39.679688 C 272.980469 39.824219 272.703125 39.976562 272.492188 40.125 C 272.527344 40.359375 272.625 40.71875 272.789062 41.199219 C 272.953125 41.679688 273.035156 42.140625 273.035156 42.585938 C 273.035156 42.785156 272.984375 43.035156 272.875 43.335938 C 272.769531 43.632812 272.617188 43.871094 272.421875 44.046875 C 272.152344 44.28125 271.847656 44.460938 271.515625 44.59375 C 271.179688 44.722656 270.667969 44.785156 269.976562 44.785156 C 268.992188 44.785156 268.25 44.546875 267.742188 44.074219 C 267.238281 43.597656 266.988281 42.980469 266.988281 42.21875 C 266.988281 41.5625 267.25 40.972656 267.769531 40.453125 C 268.292969 39.929688 268.929688 39.5 269.679688 39.160156 C 270.417969 38.808594 271.265625 38.535156 272.226562 38.34375 C 273.1875 38.148438 274.078125 38.054688 274.898438 38.054688 C 276.035156 38.054688 277.078125 38.121094 278.027344 38.253906 C 278.976562 38.390625 279.832031 38.667969 280.59375 39.089844 C 281.320312 39.5 281.898438 40.09375 282.324219 40.875 C 282.753906 41.652344 282.96875 42.671875 282.96875 43.921875 C 282.96875 45.246094 282.941406 46.820312 282.886719 48.632812 C 282.835938 50.449219 282.808594 51.648438 282.808594 52.21875 C 282.808594 52.746094 282.886719 53.164062 283.046875 53.46875 C 283.203125 53.773438 283.445312 54 283.773438 54.15625 C 283.972656 54.25 284.289062 54.304688 284.714844 54.320312 C 285.144531 54.339844 285.53125 54.347656 285.882812 54.347656 Z M 277.148438 46.472656 C 276.492188 46.695312 275.84375 46.949219 275.195312 47.238281 C 274.550781 47.523438 274.023438 47.828125 273.617188 48.140625 C 273.183594 48.46875 272.84375 48.890625 272.59375 49.398438 C 272.347656 49.910156 272.226562 50.507812 272.226562 51.203125 C 272.226562 52.117188 272.433594 52.777344 272.851562 53.1875 C 273.265625 53.597656 273.78125 53.804688 274.390625 53.804688 C 275.035156 53.804688 275.5625 53.671875 275.980469 53.40625 C 276.394531 53.144531 276.761719 52.820312 277.078125 52.429688 Z M 312.039062 63.804688 L 299.734375 63.804688 L 299.734375 62.503906 C 300.0625 62.480469 300.457031 62.441406 300.917969 62.390625 C 301.382812 62.335938 301.742188 62.265625 302 62.171875 C 302.363281 62.054688 302.621094 61.84375 302.773438 61.539062 C 302.925781 61.234375 303 60.867188 303 60.445312 L 303 54.3125 L 302.859375 54.277344 C 302.660156 54.464844 302.402344 54.695312 302.078125 54.960938 C 301.757812 55.230469 301.367188 55.472656 300.910156 55.683594 C 300.40625 55.929688 299.921875 56.121094 299.460938 56.253906 C 298.996094 56.390625 298.382812 56.457031 297.625 56.457031 C 295.1875 56.457031 293.21875 55.613281 291.71875 53.925781 C 290.21875 52.238281 289.46875 49.964844 289.46875 47.105469 C 289.46875 44.515625 290.363281 42.367188 292.15625 40.65625 C 293.949219 38.945312 296.21875 38.085938 298.960938 38.085938 C 300.34375 38.085938 301.589844 38.242188 302.703125 38.554688 C 303.816406 38.863281 304.851562 39.273438 305.8125 39.773438 L 308.101562 37.523438 L 309.066406 37.753906 C 309.03125 38.492188 308.976562 39.457031 308.898438 40.644531 C 308.824219 41.835938 308.785156 42.820312 308.785156 43.609375 L 308.785156 60.148438 C 308.785156 60.582031 308.863281 60.953125 309.023438 61.265625 C 309.179688 61.574219 309.4375 61.804688 309.789062 61.960938 C 310.046875 62.078125 310.398438 62.1875 310.84375 62.292969 C 311.289062 62.398438 311.6875 62.46875 312.039062 62.503906 Z M 303 52.5 L 303 42.570312 C 302.917969 42.277344 302.804688 41.960938 302.660156 41.621094 C 302.511719 41.28125 302.304688 40.953125 302.035156 40.636719 C 301.777344 40.34375 301.457031 40.101562 301.078125 39.914062 C 300.695312 39.726562 300.234375 39.632812 299.695312 39.632812 C 298.523438 39.632812 297.578125 40.320312 296.859375 41.691406 C 296.136719 43.0625 295.777344 44.953125 295.777344 47.367188 C 295.777344 48.351562 295.851562 49.222656 296.007812 49.980469 C 296.160156 50.734375 296.386719 51.394531 296.691406 51.957031 C 297.042969 52.578125 297.464844 53.058594 297.957031 53.398438 C 298.449219 53.738281 299.105469 53.90625 299.925781 53.90625 C 300.675781 53.90625 301.285156 53.78125 301.753906 53.53125 C 302.222656 53.277344 302.640625 52.9375 303 52.5 Z M 98 22.988281 "/>
</svg>
